<svg width="183" height="183" xmlns="http://www.w3.org/2000/svg" xmlns:xlink="http://www.w3.org/1999/xlink" xml:space="preserve" overflow="hidden"><defs><clipPath id="clip0"><rect x="438" y="339" width="183" height="183"/></clipPath></defs><g clip-path="url(#clip0)" transform="translate(-438 -339)"><path d="M610.706 491.5 536.172 361.875C533.312 356.728 525.878 356.728 523.019 361.875L448.294 491.5C445.434 496.647 449.056 502.938 454.966 502.938L529.5 502.938 604.034 502.938C609.944 502.938 613.566 496.647 610.706 491.5ZM523.781 392.375 535.219 392.375 535.219 459.094 523.781 459.094 523.781 392.375ZM529.5 485.781C524.162 485.781 519.969 481.587 519.969 476.25 519.969 470.913 524.162 466.719 529.5 466.719 534.838 466.719 539.031 470.913 539.031 476.25 539.031 481.587 534.838 485.781 529.5 485.781Z" stroke="#FF0000" stroke-width="1.90627" fill="#FF0000"/></g></svg>