<svg width="96" height="96" xmlns="http://www.w3.org/2000/svg" xmlns:xlink="http://www.w3.org/1999/xlink" xml:space="preserve" overflow="hidden"><defs><clipPath id="clip0"><rect x="592" y="147" width="96" height="96"/></clipPath></defs><g clip-path="url(#clip0)" transform="translate(-592 -147)"><path d="M639.986 157C619.011 157 602.007 174.004 602.007 194.979 602.007 215.954 619.011 232.958 639.986 232.958 660.961 232.958 677.965 215.954 677.965 194.979 677.965 194.978 677.965 194.976 677.965 194.975 677.972 174.009 660.982 157.007 640.016 157 640.006 157 639.996 157 639.986 157ZM658.605 198.36 643.367 198.36 643.367 213.594 636.605 213.594 636.605 198.356 621.367 198.356 621.367 191.594 636.605 191.594 636.605 176.356 643.367 176.356 643.367 191.594 658.605 191.594Z" stroke="#053E75" fill="#053770"/></g></svg>