<svg width="183" height="183" xmlns="http://www.w3.org/2000/svg" xmlns:xlink="http://www.w3.org/1999/xlink" xml:space="preserve" overflow="hidden"><defs><clipPath id="clip0"><rect x="438" y="131" width="183" height="183"/></clipPath></defs><g clip-path="url(#clip0)" transform="translate(-438 -131)"><path d="M610.706 283.5 536.172 153.875C533.312 148.728 525.878 148.728 523.019 153.875L448.294 283.5C445.434 288.647 449.056 294.938 454.966 294.938L529.5 294.938 604.034 294.938C609.944 294.938 613.566 288.647 610.706 283.5ZM523.781 184.375 535.219 184.375 535.219 251.094 523.781 251.094 523.781 184.375ZM529.5 277.781C524.162 277.781 519.969 273.587 519.969 268.25 519.969 262.913 524.162 258.719 529.5 258.719 534.838 258.719 539.031 262.913 539.031 268.25 539.031 273.587 534.838 277.781 529.5 277.781Z" stroke="#FFC000" stroke-width="1.90627" fill="#FFC000"/></g></svg>