<svg width="183" height="183" xmlns="http://www.w3.org/2000/svg" xmlns:xlink="http://www.w3.org/1999/xlink" xml:space="preserve" overflow="hidden"><defs><clipPath id="clip0"><rect x="659" y="131" width="183" height="183"/></clipPath></defs><g clip-path="url(#clip0)" transform="translate(-659 -131)"><path d="M750.46 150.062C710.476 150.062 678.062 182.476 678.062 222.46 678.062 262.444 710.476 294.857 750.46 294.857 790.444 294.857 822.857 262.444 822.857 222.46 822.857 222.458 822.857 222.456 822.857 222.454 822.871 182.487 790.482 150.076 750.515 150.062 750.497 150.062 750.478 150.062 750.46 150.062ZM767.997 225.918C757.45 236.447 746.838 247.069 736.163 257.785 727.092 248.67 717.999 239.578 708.885 230.506L717.998 221.392 736.163 239.557C744.981 230.612 753.75 221.729 762.469 212.91 771.183 204.091 776.004 199.358 785.041 190.624 785.295 190.37 785.567 190.119 785.863 189.861 786.149 189.618 786.405 189.342 786.625 189.038L795.867 198.151C785.133 208.826 778.545 215.384 767.996 225.912Z" stroke="#70AD47" stroke-width="1.90627" fill="#70AD47"/></g></svg>